<?xml version="1.0" encoding="UTF-8" standalone="no"?>
<!-- Created with Inkscape (http://www.inkscape.org/) -->

<svg
   width="1080"
   height="1080"
   viewBox="0 0 1080 1080"
   version="1.1"
   id="svg1"
   xml:space="preserve"
   inkscape:export-filename="bitmap.jpg"
   inkscape:export-xdpi="96"
   inkscape:export-ydpi="96"
   inkscape:version="1.4 (86a8ad7, 2024-10-11)"
   sodipodi:docname="LAM.svg"
   xmlns:inkscape="http://www.inkscape.org/namespaces/inkscape"
   xmlns:sodipodi="http://sodipodi.sourceforge.net/DTD/sodipodi-0.dtd"
   xmlns="http://www.w3.org/2000/svg"
   xmlns:svg="http://www.w3.org/2000/svg"><sodipodi:namedview
     id="namedview1"
     pagecolor="#ffffff"
     bordercolor="#000000"
     borderopacity="0.25"
     inkscape:showpageshadow="2"
     inkscape:pageopacity="0.0"
     inkscape:pagecheckerboard="0"
     inkscape:deskcolor="#d1d1d1"
     inkscape:document-units="px"
     showguides="true"
     inkscape:zoom="0.81160842"
     inkscape:cx="643.78337"
     inkscape:cy="470.05427"
     inkscape:window-width="1920"
     inkscape:window-height="1009"
     inkscape:window-x="-8"
     inkscape:window-y="-8"
     inkscape:window-maximized="1"
     inkscape:current-layer="g39"><sodipodi:guide
       position="1.33829,1070.632"
       orientation="1,0"
       id="guide2"
       inkscape:locked="false" /></sodipodi:namedview><defs
     id="defs1" /><g
     inkscape:label="Layer 1"
     inkscape:groupmode="layer"
     id="layer1"><path
       d="M 275,200 75,659.39648 h 50 L 275,314.84961 Z"
       style="display:none;fill:#008066"
       id="path3-2" /><path
       d="M 274,200 474,659.39648 H 424 L 274,314.84961 Z"
       style="display:none;fill:#008066"
       id="path3-2-4" /><g
       id="g39"
       transform="matrix(0.97043396,0,0,0.97043396,30.155056,62.810099)"
       style="display:inline"><path
         d="M 442,235 242,694.39648 h 50 L 442,349.84961 Z"
         style="display:inline;fill:#00e2b4;stroke:none;stroke-opacity:1;fill-opacity:1"
         id="path3" /><path
         id="path3-2-0"
         style="display:inline;fill:#00e2b4;stroke:none;stroke-opacity:1;fill-opacity:1"
         d="m 528.75675,227.92893 v 2.29688 l -199,457.0996 h 50 l 149.5,-343.39843 15,34.45507 -134.5,308.94336 h 50 l 109.5,-251.51953 109.5,251.51953 h 50 l -134.5,-308.94336 15,-34.45507 149.5,343.39843 h 50 l -199,-457.0996 v -2.29688 l -0.5,1.14844 -0.5,-1.14844 v 2.29688 l -39.5,90.73046 -39.5,-90.73046 v -2.29688 l -0.5,1.14844 z" /><path
         d="m 302.85896,654.39648 -10.85896,40 h 298.18164 v -40 z"
         style="display:inline;fill:#00e2b4;stroke-width:0.717879;stroke:none;stroke-opacity:1;fill-opacity:1"
         id="path15" /><circle
         style="display:inline;fill:none;fill-opacity:1;stroke:#00e2b4;stroke-width:50;stroke-dasharray:none;stroke-opacity:1"
         id="path36"
         cx="539.99994"
         cy="539.99994"
         r="341.54587"
         transform="matrix(1.0304668,0,0,1.0304668,-31.073709,-64.723648)" /></g><g
       id="g15"
       transform="translate(-46,-1)"
       style="display:none"><path
         d="M 399.5,315.99805 399,314.84961 V 202.29687 L 200,659.39648 h 50 z"
         style="display:inline;fill:#008066"
         id="path8" /><path
         d="m 449.5,315.99805 25,57.42382 25,-57.42382 -0.5,-1.14844 V 202.29687 Z"
         style="display:inline;fill:#008066"
         id="path12" /><path
         d="m 500,202.29687 v 112.55274 l -0.5,1.14844 149.5,343.39843 h 50 z"
         style="display:inline;fill:#008066"
         id="path14" /><path
         d="m 499,202.29687 v 112.55274 l 0.5,1.14844 0.5,-1.14844 V 202.29687 l -0.5,-1.14843 z"
         style="display:inline;fill:#008066"
         id="path13" /><path
         d="m 449.5,315.99805 -25,57.42382 25,57.42579 25,-57.42579 z"
         style="display:inline;fill:#008066"
         id="path11" /><path
         d="m 400,202.29687 v 112.55274 l -0.5,1.14844 25,57.42382 25,-57.42382 z"
         style="display:inline;fill:#008066"
         id="path10" /><path
         d="m 399.5,201.14844 -0.5,1.14843 v 112.55274 l 0.5,1.14844 0.5,-1.14844 V 202.29687 Z"
         style="display:inline;fill:#008066"
         id="path9" /></g><text
       xml:space="preserve"
       style="font-style:normal;font-variant:normal;font-weight:normal;font-stretch:normal;font-size:192px;font-family:'Linux Biolinum G';-inkscape-font-specification:'Linux Biolinum G';text-align:start;writing-mode:lr-tb;direction:ltr;text-anchor:start;display:none;fill:#008066;fill-opacity:1;stroke:none;stroke-width:2;stroke-dasharray:none"
       x="130.65288"
       y="980"
       id="text1"><tspan
         sodipodi:role="line"
         id="tspan1"
         x="130.65288"
         y="980"
         style="font-style:italic;font-variant:normal;font-weight:bold;font-stretch:normal;font-size:192px;font-family:'JetBrainsMono Nerd Font';-inkscape-font-specification:'JetBrainsMono Nerd Font Bold Italic';fill:#008066;fill-opacity:1;stroke:none;stroke-width:2;stroke-dasharray:none;stroke-opacity:1">LAMINAR</tspan></text></g></svg>
